# xmcd
#
# Track frame offsets:
#	150
#	16987
#	30987
#	49417
#	72917
#	92137
#
# Disc length: 1438 seconds
#
# Revision: 1
# Processed by: cddbd v1.4PL0 Copyright (c) Steve Scherf et al.
# Submitted via: EasyCDDAExtractor 5.0.6
#
DISCID=46059c06
DTITLE=Overnight Jones - Not Brothers Anymore
DYEAR=1900
DGENRE=AlternRock
TTITLE0=Head Over Heels
TTITLE1=She Lies
TTITLE2=Brunswick St. Girl
TTITLE3=Leave Me
TTITLE4=Stuck In Melbourne
TTITLE5=Continental
EXTD=Tracks 3-6 Recorded Live @ Great Britain Hotel, Richmond, Victoria, Aust.
EXTT0=From 'My Private Train'
EXTT1=From 'My Private Train'
EXTT2=From 'My Private Train'
EXTT3=From 'My Private Train'
EXTT4=From 'My Private Train'
EXTT5=From 'My Private Train'
PLAYORDER=
